<?xml version="1.0" encoding="UTF-8" standalone="no"?>
<!-- Created with Inkscape (http://www.inkscape.org/) -->

<svg
   xmlns:dc="http://purl.org/dc/elements/1.1/"
   xmlns:cc="http://creativecommons.org/ns#"
   xmlns:rdf="http://www.w3.org/1999/02/22-rdf-syntax-ns#"
   xmlns:svg="http://www.w3.org/2000/svg"
   xmlns="http://www.w3.org/2000/svg"
   xmlns:sodipodi="http://sodipodi.sourceforge.net/DTD/sodipodi-0.dtd"
   xmlns:inkscape="http://www.inkscape.org/namespaces/inkscape"
   width="48"
   height="48"
   viewBox="0 0 19.050035 12.7"
   version="1.1"
   id="svg8"
   sodipodi:docname="itovac-brand.svg"
   inkscape:version="0.92.4 (5da689c313, 2019-01-14)">
  <defs
     id="defs2" />
  <sodipodi:namedview
     id="base"
     pagecolor="#ffffff"
     bordercolor="#666666"
     borderopacity="1.0"
     inkscape:pageopacity="0"
     inkscape:pageshadow="2"
     inkscape:zoom="5.6"
     inkscape:cx="89.574529"
     inkscape:cy="39.591216"
     inkscape:document-units="px"
     inkscape:current-layer="layer1"
     showgrid="false"
     units="px"
     width="800px"
     inkscape:pagecheckerboard="true"
     showborder="true"
     borderlayer="false"
     inkscape:showpageshadow="false"
     inkscape:window-width="1920"
     inkscape:window-height="1017"
     inkscape:window-x="-8"
     inkscape:window-y="-8"
     inkscape:window-maximized="1"
     fit-margin-top="1"
     fit-margin-left="1"
     fit-margin-right="1"
     fit-margin-bottom="1" />
  <metadata
     id="metadata5">
    <rdf:RDF>
      <cc:Work
         rdf:about="">
        <dc:format>image/svg+xml</dc:format>
        <dc:type
           rdf:resource="http://purl.org/dc/dcmitype/StillImage" />
        <dc:title></dc:title>
      </cc:Work>
    </rdf:RDF>
  </metadata>
  <g
     inkscape:label="Layer 1"
     inkscape:groupmode="layer"
     id="layer1"
     transform="translate(-2.7152884,-274.65638)"
     style="display:inline">
    <path
       style="display:inline;fill:#ffffff;stroke-width:0.02918056"
       d="m 5.8588582,287.76343 c 0.021072,-0.008 0.046238,-0.007 0.055934,0.003 0.00976,0.009 -0.00746,0.0165 -0.038292,0.0153 -0.033994,-10e-4 -0.040896,-0.008 -0.017628,-0.0176 z m 6.2894678,-1.35176 c -0.02268,-0.0236 -0.02522,-0.0641 -0.0079,-0.12489 0.01418,-0.0495 0.02029,-0.0955 0.01356,-0.10224 -0.0068,-0.007 -0.173935,-0.0122 -0.371552,-0.0122 -0.19762,-3.4e-4 -0.381744,-0.0122 -0.409167,-0.0266 -0.04627,-0.0241 -0.04542,-0.0339 0.01153,-0.13505 0.170857,-0.30324 0.573932,-0.54345 0.986358,-0.58783 l 0.160653,-0.0174 -0.01452,-0.11675 c -0.02237,-0.17968 -0.01704,-0.88698 0.008,-1.0505 0.0122,-0.0803 0.02758,-0.1853 0.0341,-0.23344 0.0065,-0.0481 0.0457,-0.17648 0.08708,-0.28519 0.112043,-0.2943 0.119488,-0.28384 -0.20237,-0.28384 -0.152687,0 -0.30041,-0.0122 -0.328281,-0.0269 -0.02787,-0.0148 -0.116328,-0.0555 -0.196571,-0.0903 -0.09009,-0.0392 -0.215457,-0.13505 -0.327728,-0.25042 -0.100002,-0.10278 -0.191923,-0.18616 -0.204264,-0.18529 -0.02509,10e-4 -0.212114,0.27692 -0.212114,0.31206 0,0.0122 -0.129007,0.1471 -0.286677,0.29941 -0.308626,0.29817 -0.401792,0.37909 -0.436396,0.37909 -0.0122,0 -0.0678,0.0308 -0.123691,0.0685 -0.182996,0.12312 -0.7372888,0.39179 -0.8859339,0.42931 -0.3952114,0.0998 -0.4701583,0.13356 -0.4875906,0.21983 l -0.017167,0.0849 -0.021316,-0.0757 c -0.018482,-0.0655 -0.035608,-0.0747 -0.1283422,-0.0692 -0.094782,0.005 -0.1091689,0.0171 -0.1259286,0.099 -0.027119,0.13261 -0.054876,0.14556 -0.054876,0.0256 v -0.10278 l -0.228281,-0.019 c -0.2215025,-0.0184 -0.5135153,-0.0797 -0.6325461,-0.13275 -0.032096,-0.0142 -0.1962382,-0.083 -0.364755,-0.15254 -0.425707,-0.17584 -0.6567352,-0.30808 -0.821039,-0.46998 -0.077358,-0.0762 -0.1482573,-0.13861 -0.1575321,-0.13861 -0.02499,0 -0.2959451,0.28477 -0.4303566,0.4523 -0.1213454,0.15124 -0.3415706,0.58725 -0.342353,0.67782 -5.112e-4,0.0561 -0.048056,0.14606 -0.065534,0.1238 -0.00597,-0.008 -0.061805,-0.16476 -0.1241387,-0.34933 -0.097087,-0.28741 -0.1148504,-0.37954 -0.1237726,-0.64196 -0.00678,-0.20339 0.00353,-0.35818 0.030943,-0.4604 0.02274,-0.0847 0.032394,-0.15952 0.021451,-0.16629 -0.010983,-0.007 -0.056584,0.007 -0.1013992,0.03 -0.1196911,0.0621 -0.2181953,0.0519 -0.344273,-0.0354 -0.06571,-0.0456 -0.1222269,-0.0667 -0.1365906,-0.0511 -0.013424,0.0146 -0.047079,0.0963 -0.0747,0.18133 -0.084206,0.25949 -0.2268166,0.34871 -0.5488735,0.34341 -0.2832004,-0.005 -0.5129621,-0.0964 -0.587368,-0.23458 -0.072748,-0.13506 -0.046089,-0.2172 0.12921,-0.39814 0.080002,-0.0826 0.1454816,-0.15828 0.1454993,-0.16826 1.76e-5,-0.009 -0.1148775,-0.0182 -0.2553299,-0.0182 H 3.3401561 l -0.064449,-0.13479 c -0.035445,-0.0742 -0.073331,-0.22147 -0.084192,-0.32737 -0.017912,-0.17482 -0.012068,-0.20761 0.063107,-0.35626 0.1688816,-0.3338 0.4124999,-0.33536 0.7185686,-0.004 0.16571,0.17905 0.2548987,0.21417 0.1493028,0.0589 -0.091473,-0.13465 -0.1257795,-0.2377 -0.1257795,-0.37799 0,-0.10943 0.015146,-0.14697 0.086158,-0.21329 0.1775869,-0.16591 0.6525372,-0.21962 0.8509232,-0.0963 0.1473881,0.0917 0.217215,0.27595 0.1706565,0.45041 -0.036679,0.13746 -0.1753454,0.40313 -0.2104283,0.40319 -0.012068,10e-6 -0.021885,0.0214 -0.021885,0.0475 0,0.0378 0.01897,0.0437 0.09344,0.0287 0.051391,-0.0109 0.1203285,-0.0426 0.1531971,-0.0717 0.0739,-0.0655 0.2716123,-0.17957 0.3113041,-0.17957 0.01615,0 0.098294,-0.0338 0.1825497,-0.075 l 0.1531984,-0.075 0.036733,-0.34081 c 0.020204,-0.18745 0.049289,-0.3999 0.064612,-0.47212 0.084124,-0.39627 0.1218878,-0.55474 0.164895,-0.69173 l 0.047676,-0.1519 -0.078551,-0.0618 c -0.104884,-0.0824 -0.100111,-0.12854 0.00746,-0.0729 0.04735,0.0245 0.091935,0.0445 0.09908,0.0445 0.00719,0 0.045533,-0.0624 0.085331,-0.1386 l 0.072341,-0.1386 -0.082158,-0.1751 c -0.085101,-0.18136 -0.1088435,-0.29502 -0.054605,-0.26151 0.017044,0.0109 0.043269,0.0475 0.058293,0.082 0.015024,0.0346 0.03954,0.0826 0.054456,0.10658 0.014929,0.0241 0.034238,0.0667 0.04293,0.0948 0.024679,0.0799 0.058537,0.0617 0.1637492,-0.0876 0.11862,-0.16833 0.1218472,-0.17206 0.385127,-0.445 0.2134563,-0.22128 0.3951951,-0.36534 0.8329268,-0.66023 0.2539074,-0.17106 0.2544851,-0.17204 0.2416725,-0.4097 -0.00271,-0.0508 0.014373,-0.12976 0.038035,-0.17554 0.023648,-0.0457 0.047554,-0.12895 0.0531,-0.18485 l 0.010034,-0.10169 H 7.7823929 7.5557282 l -0.2453161,0.25321 c -0.2229385,0.23011 -0.2580417,0.25512 -0.3848327,0.27414 -0.1349322,0.0202 -0.1425785,0.0174 -0.2324899,-0.0867 -0.1286406,-0.14881 -0.1760967,-0.35935 -0.119081,-0.52825 0.073195,-0.21682 0.7374437,-0.33273 1.3329136,-0.23259 l 0.1021314,0.0172 -0.094741,-0.0491 c -0.066415,-0.0344 -0.1046399,-0.0822 -0.1278405,-0.15957 -0.042103,-0.14054 -0.017844,-0.23561 0.086863,-0.34032 0.071595,-0.0716 0.085209,-0.11187 0.097982,-0.29041 0.01817,-0.2539 0.1153928,-0.40147 0.2969825,-0.45077 0.1527726,-0.0415 0.2432332,-0.0136 0.3566232,0.11024 l 0.095162,0.10386 0.1369309,-0.0765 c 0.1583905,-0.0885 0.208709,-0.0937 0.2982231,-0.031 0.082239,0.0576 0.093535,0.0496 0.1817606,-0.12896 0.040001,-0.081 0.1043144,-0.16419 0.1429473,-0.185 0.097128,-0.0523 0.418793,-0.0484 0.4842837,0.005 0.07249,0.0602 0.1927877,0.2569 0.1978067,0.32352 0.0035,0.0465 0.02728,0.0557 0.143893,0.0557 0.07683,0 0.139691,0.0136 0.139691,0.0292 0,0.016 0.05294,0.0292 0.117644,0.0292 0.07766,0 0.123352,0.0149 0.134431,0.0438 0.0092,0.0241 0.03634,0.0438 0.06025,0.0438 0.0491,0 0.2224,-0.0906 0.237256,-0.12407 0.02091,-0.0471 0.385766,-0.0222 0.495331,0.0336 0.105847,0.054 0.111772,0.0541 0.218689,0.003 0.06044,-0.0294 0.119298,-0.0576 0.130783,-0.0628 0.01152,-0.005 0.01801,-0.0422 0.01451,-0.0823 -0.02593,-0.29629 -0.01504,-0.42889 0.04472,-0.54492 0.15005,-0.29136 0.444879,-0.48339 0.74954,-0.48822 0.209181,-0.003 0.443967,0.10306 0.626695,0.28401 l 0.114403,0.11322 0.08483,-0.0605 c 0.04666,-0.0332 0.145811,-0.0768 0.220343,-0.0967 0.118226,-0.0316 0.156269,-0.0292 0.298208,0.019 0.182076,0.0618 0.215383,0.045 0.216237,-0.10956 5.78e-4,-0.10007 0.248261,-0.36219 0.429699,-0.4547 0.25167,-0.12827 0.632537,-0.0682 0.840101,0.13248 0.167629,0.16211 0.309027,0.43011 0.264737,0.50178 -0.01916,0.031 0.135067,0.091 0.233968,0.091 0.03679,0 0.07498,0.0136 0.08491,0.0292 0.04079,0.066 0.170269,0.0258 0.305695,-0.0948 0.07654,-0.0682 0.190099,-0.14845 0.252322,-0.17831 0.06223,-0.0298 0.135938,-0.066 0.163807,-0.0803 0.08396,-0.043 0.290988,-0.0294 0.452957,0.0298 0.194862,0.0712 0.368015,0.20854 0.457481,0.36279 0.07193,0.12407 0.17215,0.45668 0.137688,0.45703 -0.01044,1.1e-4 0.0698,0.0575 0.178493,0.1276 0.183063,0.11796 0.216541,0.12895 0.454865,0.14752 0.514299,0.0403 0.750027,0.24991 0.772426,0.68703 0.0054,0.10509 0.02934,0.12421 0.217538,0.17446 0.171297,0.0457 0.368576,0.23919 0.417801,0.40976 0.02083,0.0723 0.03854,0.23088 0.03934,0.35258 0.0015,0.18825 -0.01058,0.24346 -0.07947,0.36992 -0.0445,0.0818 -0.07065,0.155 -0.0581,0.16274 0.04313,0.0267 0.276748,-0.0324 0.353731,-0.0895 0.06217,-0.0461 0.08476,-0.099 0.116721,-0.27326 0.0878,-0.47884 0.137319,-0.56831 0.332018,-0.5999 0.08844,-0.0142 0.117169,-0.003 0.20557,0.0814 0.05653,0.054 0.131746,0.16041 0.167173,0.23658 0.06349,0.13652 0.06369,0.14143 0.01485,0.34077 -0.02727,0.11119 -0.07917,0.24238 -0.115366,0.29144 -0.06323,0.0857 -0.20225,0.20992 -0.233935,0.20902 -0.0084,-1.6e-4 -0.07241,0.0241 -0.142265,0.054 -0.158281,0.0678 -0.44661,0.12922 -0.503827,0.10726 -0.11664,-0.0447 -0.143908,0.46542 -0.03151,0.58961 0.103176,0.11404 0.138103,0.26546 0.144579,0.62693 0.0058,0.32274 -8.7e-5,0.36919 -0.06229,0.4944 -0.08789,0.17689 -0.276291,0.36614 -0.434691,0.43669 -0.06821,0.0304 -0.124016,0.0751 -0.124016,0.0994 0,0.10916 -0.105779,0.35676 -0.195536,0.4577 -0.08175,0.0919 -0.0956,0.12651 -0.08168,0.20426 0.05318,0.29716 0.05846,0.37242 0.03711,0.53066 -0.01342,0.099 -0.06821,0.26612 -0.12685,0.38641 -0.123597,0.25353 -0.248984,0.34323 -0.523052,0.3742 -0.09629,0.0108 -0.182783,0.0243 -0.192194,0.03 -0.0094,0.005 -0.01881,0.0552 -0.02088,0.11037 -0.0062,0.16296 -0.130308,0.40597 -0.256969,0.50285 -0.133318,0.10197 -0.233037,0.1543 -0.328104,0.17214 -0.139384,0.0262 -0.143249,0.0427 -0.135095,0.57729 0.0043,0.27659 0.01622,0.5718 0.02665,0.65602 0.01999,0.16122 0.189602,0.70852 0.264427,0.85321 0.02418,0.0468 0.04397,0.12299 0.04397,0.16943 v 0.0845 l -0.532544,0.0192 c -0.292898,0.0109 -0.680271,0.0278 -0.860826,0.0381 l -0.328281,0.0188 v -0.11905 c 0,-0.14032 -0.02442,-0.14925 -0.320987,-0.11729 -0.496057,0.0534 -0.641333,0.0122 -0.59957,-0.1716 0.02492,-0.10943 0.05762,-0.14734 0.263996,-0.30578 0.24859,-0.19086 0.280023,-0.20264 0.589856,-0.22114 l 0.277947,-0.0165 -0.02537,-0.16328 c -0.04193,-0.26991 -0.02789,-0.81474 0.02567,-0.99494 0.06292,-0.21175 0.09124,-0.32591 0.09409,-0.37935 0.0024,-0.0461 -0.293671,-0.35016 -0.341021,-0.35016 -0.01517,0 -0.102037,0.0636 -0.193052,0.14117 -0.253628,0.21637 -0.409515,0.27745 -0.690733,0.27067 -0.245325,-0.005 -0.321931,-0.0138 -0.393937,-0.0408 -0.02408,-0.009 -0.09519,-0.0249 -0.158035,-0.0355 -0.09352,-0.0156 -0.158962,-0.0643 -0.36054,-0.26815 l -0.246276,-0.24907 -0.158193,0.15624 c -0.225811,0.223 -0.25602,0.35308 -0.256651,1.10504 -6.81e-4,0.81301 0.03593,1.03071 0.239119,1.42172 0.05189,0.0998 0.09433,0.19455 0.09433,0.21045 0,0.0647 -0.226806,0.0922 -1.181813,0.14359 -0.683095,0.0368 -0.731399,0.037 -0.763104,0.004 z m 0.617203,-0.14749 c 0.112342,-0.0164 0.381537,-0.0349 0.598202,-0.041 0.542857,-0.0153 0.565018,-0.0283 0.455323,-0.26732 -0.07366,-0.16052 -0.154114,-0.43483 -0.17864,-0.60915 -0.04505,-0.32015 -0.0039,-1.35376 0.06109,-1.53822 0.0232,-0.0658 0.03527,-0.12652 0.02679,-0.13492 -0.01949,-0.0195 -0.08135,0.0412 -0.09162,0.0899 -0.09973,0.47269 -0.130891,1.27816 -0.06406,1.65628 0.03319,0.18779 0.04399,0.5155 0.01787,0.54165 -0.0075,0.008 -0.09108,-0.0222 -0.185822,-0.066 -0.14399,-0.0664 -0.212994,-0.0797 -0.420306,-0.0804 -0.232932,-6.8e-4 -0.256364,0.005 -0.384799,0.0938 -0.124179,0.086 -0.344716,0.32111 -0.344716,0.36742 0,0.0283 0.279249,0.0217 0.510659,-0.0122 z m 4.851268,-0.0264 c 0.13241,0.001 0.24074,-0.009 0.24074,-0.0243 0,-0.0537 -0.07116,-0.22872 -0.144789,-0.35603 -0.145442,-0.25149 -0.227742,-0.76559 -0.223064,-1.39339 0.0016,-0.2287 -0.005,-0.41582 -0.01501,-0.41582 -0.05126,3e-5 -0.135953,0.50132 -0.126647,0.74962 0.0062,0.16403 0.08278,0.85389 0.104748,0.94287 0.0087,0.0351 -0.01798,0.0424 -0.135095,0.0371 -0.08025,-0.004 -0.178731,-0.008 -0.218855,-0.009 -0.167455,-0.007 -0.452497,0.12936 -0.533191,0.25551 -0.01234,0.0194 -0.03986,0.0525 -0.06103,0.0738 -0.02118,0.0212 -0.05526,0.0698 -0.0757,0.10807 l -0.0372,0.0694 0.492176,-0.0195 c 0.270694,-0.0109 0.600503,-0.0186 0.732907,-0.0175 z m -5.414892,-0.20298 c 0.03715,-0.0148 0.120085,-0.0744 0.184278,-0.13234 0.0642,-0.058 0.173997,-0.13987 0.244003,-0.18198 l 0.127285,-0.0766 -0.01832,-0.14852 c -0.01004,-0.0816 -0.02574,-0.20103 -0.03478,-0.26522 -0.01775,-0.12584 -0.02025,-0.66303 -0.0035,-0.75869 0.0056,-0.032 0.01879,-0.0913 0.02928,-0.13126 0.01044,-0.0401 0.02528,-0.14518 0.03284,-0.23346 0.0075,-0.0883 0.04056,-0.25897 0.0733,-0.37934 0.07214,-0.26511 0.07865,-0.38154 0.01302,-0.23345 -0.167672,0.37844 -0.279486,1.31381 -0.214266,1.79242 0.01329,0.0975 0.02838,0.21667 0.03355,0.26482 l 0.0094,0.0876 h -0.320983 c -0.287687,0 -0.337637,0.008 -0.481479,0.0776 -0.08827,0.0426 -0.212427,0.12801 -0.275898,0.18968 l -0.115407,0.11213 0.290489,0.0163 c 0.159768,0.009 0.306047,0.0188 0.325063,0.022 0.01901,0.003 0.06498,-0.007 0.102131,-0.0213 z m 3.998732,-0.0138 c 0.14588,-0.0122 0.17809,-0.0263 0.255892,-0.11498 0.04895,-0.0557 0.151126,-0.13425 0.227049,-0.17452 0.149676,-0.0793 0.162662,-0.12502 0.08159,-0.28757 -0.101128,-0.20273 -0.110931,-1.12479 -0.0155,-1.45757 0.0155,-0.0541 0.02819,-0.1017 0.02819,-0.10577 0,-0.004 -0.02626,-0.008 -0.05836,-0.008 -0.03528,0 -0.05924,0.0202 -0.06058,0.0511 -0.0013,0.0281 -0.0069,0.0708 -0.01288,0.0948 -0.0058,0.0241 -0.03185,0.16048 -0.05782,0.30313 -0.05627,0.30924 -0.04201,0.88501 0.02757,1.11213 0.02458,0.0803 0.04483,0.15763 0.04502,0.17198 1.61e-4,0.0151 -0.08882,0.0161 -0.211242,0.003 -0.449926,-0.0502 -0.661385,0.0122 -0.886942,0.25939 l -0.13636,0.14978 0.08488,0.0155 c 0.08903,0.0163 0.40651,0.0109 0.68948,-0.0122 z m -2.765911,-0.47724 c -0.02328,-0.20442 -0.02145,-1.19876 0.0027,-1.44842 0.0075,-0.0784 0.02815,-0.19601 0.04574,-0.2613 0.03124,-0.11607 0.02952,-0.12081 -0.07612,-0.21486 -0.05943,-0.0529 -0.117752,-0.0961 -0.129576,-0.0961 -0.0118,0 -0.05303,-0.0274 -0.09158,-0.0607 l -0.07009,-0.0607 -0.08019,0.17022 c -0.0441,0.0936 -0.08023,0.19406 -0.08029,0.2232 -5.8e-5,0.0292 -0.01234,0.0758 -0.02731,0.10386 -0.01496,0.0279 -0.03344,0.10265 -0.04103,0.16588 -0.0077,0.0632 -0.02991,0.2059 -0.0496,0.317 -0.04113,0.23208 -0.0184,0.83958 0.041,1.09655 0.03509,0.15186 0.04288,0.16167 0.144521,0.18238 0.05908,0.0122 0.156654,0.0334 0.21684,0.0473 0.224612,0.0523 0.220094,0.0561 0.195011,-0.1641 z m 3.817285,0.007 c -0.01508,-0.12001 -0.0095,-1.11915 0.0066,-1.18558 0.0092,-0.0381 0.02141,-0.12163 0.02711,-0.18589 0.0057,-0.0641 0.01519,-0.1341 0.02114,-0.15538 0.01315,-0.0469 -0.328183,-0.19633 -0.392257,-0.17175 -0.04168,0.016 -0.05333,0.0631 -0.09535,0.38549 -0.06966,0.5344 0.0049,1.13071 0.162634,1.30268 0.08837,0.0963 0.281816,0.10373 0.270099,0.0108 z M 5.7736507,284.16711 c 0.099528,-0.159 0.2427152,-0.34709 0.3181965,-0.41798 0.2333211,-0.2191 0.2281942,-0.20238 0.1206132,-0.39347 -0.052272,-0.0929 -0.098864,-0.17369 -0.1035552,-0.17967 -0.00475,-0.005 -0.051771,0.0326 -0.104667,0.0856 -0.08868,0.089 -0.096843,0.0917 -0.1050467,0.0359 -0.00488,-0.0332 0.023485,-0.1276 0.06308,-0.20969 0.062727,-0.13004 0.067622,-0.16139 0.038089,-0.24393 -0.018644,-0.0521 -0.050306,-0.11213 -0.070375,-0.13329 -0.020068,-0.0211 -0.036706,-0.0541 -0.036991,-0.0729 -0.00149,-0.0919 -0.2411017,0.39415 -0.3192081,0.64727 -0.077154,0.25002 -0.088802,0.33186 -0.088802,0.62384 0,0.23404 0.013424,0.36816 0.044164,0.44178 0.024299,0.0582 0.04853,0.10563 0.053846,0.10563 0.00542,0 0.091134,-0.13004 0.1906515,-0.28911 z m 3.0254526,0.15004 c 0.017221,-0.0122 0.039784,-0.0445 0.050144,-0.0726 0.023051,-0.0624 0.079039,-0.0677 0.079039,-0.007 0,0.0586 0.1571456,0.0576 0.3897251,-0.003 0.1552229,-0.0401 0.7360776,-0.31067 0.7774966,-0.36212 0.008,-0.01 0.1262,-0.0914 0.262625,-0.18092 0.289172,-0.18978 0.473784,-0.37568 0.740447,-0.74566 0.347897,-0.48267 0.491801,-0.87891 0.495496,-1.36436 0.0023,-0.29283 -6.8e-4,-0.30748 -0.07696,-0.3871 -0.07823,-0.0816 -0.106878,-0.14384 -0.0501,-0.10875 0.01604,0.01 0.02918,0.004 0.02918,-0.0138 0,-0.0175 -0.0197,-0.0393 -0.04377,-0.0487 -0.05542,-0.0213 -0.05683,-0.0869 -0.0023,-0.1078 0.03488,-0.0136 0.032,-0.0476 -0.01801,-0.21469 -0.03272,-0.10929 -0.09735,-0.27389 -0.143605,-0.36571 -0.04627,-0.0918 -0.08421,-0.18375 -0.0843,-0.20427 -8.7e-5,-0.0205 -0.02079,-0.0767 -0.04598,-0.12488 -0.02518,-0.0481 -0.09202,-0.19915 -0.14853,-0.33558 -0.0565,-0.13641 -0.15634,-0.35728 -0.221854,-0.49081 -0.103189,-0.21033 -0.127203,-0.24036 -0.179572,-0.22466 -0.345733,0.10373 -0.40714,0.11119 -0.599047,0.0731 -0.2011794,-0.0399 -0.2154524,-0.0461 -0.4505799,-0.19686 l -0.1482519,-0.0951 -0.081277,0.0869 c -0.044706,0.0479 -0.1415087,0.12231 -0.2151159,0.1654 -0.1695053,0.0993 -0.389557,0.10265 -0.672375,0.009 -0.1576975,-0.0517 -0.2272247,-0.0946 -0.3345589,-0.20734 -0.074524,-0.0782 -0.1586372,-0.1422 -0.1869213,-0.1422 -0.028286,0 -0.09447,0.0328 -0.1470695,0.0729 -0.052598,0.0401 -0.1071756,0.0729 -0.1212641,0.0729 -0.014089,0 -0.051079,0.0229 -0.082185,0.0511 -0.031119,0.0281 -0.1282338,0.11011 -0.2158278,0.18238 -0.1753821,0.1446 -0.5556642,0.52495 -0.5556642,0.55574 0,0.0109 -0.049222,0.0837 -0.1093994,0.16229 -0.1888766,0.24654 -0.4526541,0.76632 -0.5634095,1.11019 -0.035391,0.10997 -0.074483,0.2261 -0.086863,0.25819 -0.041981,0.10889 -0.08468,0.46627 -0.071486,0.5982 0.018753,0.18763 0.1277456,0.76247 0.1576758,0.83164 0.073643,0.17019 0.1916916,0.39933 0.2122576,0.41204 0.012882,0.008 0.023512,0.0405 0.023512,0.0721 0,0.0522 0.073358,0.19427 0.1190946,0.2307 0.010034,0.008 0.036638,0.048 0.059039,0.0887 0.076924,0.14001 0.2743134,0.36751 0.4040211,0.46567 0.2571102,0.19455 0.7136763,0.39316 1.1103168,0.48298 0.1767068,0.04 0.6966427,0.054 0.7462317,0.0199 z m -1.6205657,-1.65274 c -0.016651,-0.0438 -0.030252,-0.0923 -0.030252,-0.1078 0,-0.057 -0.1539239,-0.32989 -0.2146427,-0.38052 -0.034414,-0.0288 -0.1302677,-0.0847 -0.213006,-0.12448 -0.082727,-0.0397 -0.1576352,-0.0839 -0.1664327,-0.0983 -0.025791,-0.0418 0.1073247,-0.20659 0.163398,-0.20236 0.061263,0.004 0.305026,0.22742 0.405678,0.37079 0.090619,0.12909 0.1403982,0.27633 0.1465556,0.43351 0.00624,0.15688 -0.048381,0.22207 -0.091284,0.10916 z m 2.612576,-0.18929 c -0.03469,-0.0561 0.03778,-0.29453 0.127515,-0.41948 0.1025234,-0.14277 0.3267454,-0.28409 0.4507524,-0.28409 0.06205,0 0.07629,0.0137 0.07629,0.0734 0,0.0607 -0.02811,0.0862 -0.162718,0.14778 -0.204319,0.0934 -0.3084367,0.19322 -0.3859454,0.36978 -0.06218,0.14165 -0.07775,0.15821 -0.105901,0.11268 z m 5.7486674,1.34913 c 0.234113,-0.0786 0.509504,-0.28596 0.596978,-0.44941 0.04757,-0.089 0.09557,-0.0677 0.171803,0.0761 0.03875,0.0731 0.110444,0.16646 0.159344,0.2076 0.09766,0.0822 0.19023,0.0829 0.534854,0.004 0.14611,-0.0335 0.172742,-0.0515 0.239453,-0.16174 0.09145,-0.15109 0.154279,-0.16518 0.130159,-0.0291 -0.02136,0.12041 -0.103013,0.23777 -0.174486,0.25086 -0.08754,0.016 -0.112369,0.0553 -0.0684,0.10835 0.03353,0.0404 0.08907,0.0464 0.3501,0.0374 0.302356,-0.0109 0.313635,-0.0136 0.443939,-0.11241 0.265103,-0.20192 0.3917,-0.54599 0.266597,-0.7246 -0.06501,-0.0928 -0.03549,-0.10631 0.09545,-0.0435 0.07151,0.0343 0.172393,0.0526 0.279943,0.0511 0.140516,-0.001 0.186064,-0.0168 0.277216,-0.0894 0.06004,-0.0479 0.148243,-0.16474 0.196205,-0.26016 0.08023,-0.15957 0.08692,-0.19647 0.08437,-0.46514 -0.002,-0.2268 -0.01615,-0.32192 -0.0628,-0.42707 l -0.06001,-0.13533 0.110471,-0.0176 c 0.133155,-0.0213 0.163726,-0.0546 0.220017,-0.24021 0.07227,-0.23825 0.0425,-0.38464 -0.09061,-0.44528 -0.04006,-0.0183 -0.06974,-0.0568 -0.06974,-0.0907 0,-0.0838 0.02911,-0.0743 0.172711,0.0556 0.136928,0.12393 0.161527,0.12448 0.359196,0.008 0.106958,-0.0628 0.313018,-0.3666 0.318249,-0.46926 0.0073,-0.14237 -0.01591,-0.44408 -0.04622,-0.60218 -0.0062,-0.0321 -0.01234,-0.073 -0.01361,-0.0907 -0.0015,-0.0178 -0.03525,-0.0808 -0.07539,-0.13989 -0.04128,-0.0609 -0.07295,-0.14921 -0.07295,-0.20356 0,-0.0936 -0.0031,-0.096 -0.12106,-0.0936 -0.144591,0.003 -0.182974,-0.0567 -0.05458,-0.0849 0.09561,-0.021 0.159387,-0.096 0.190965,-0.22448 0.02681,-0.10902 -0.0612,-0.24848 -0.181973,-0.28833 -0.05278,-0.0175 -0.09598,-0.0366 -0.09598,-0.0426 0,-0.0415 0.07362,-0.15961 0.09953,-0.15964 0.01748,-10e-6 0.06896,-0.0662 0.114389,-0.14708 0.07348,-0.13085 0.08117,-0.16867 0.06958,-0.34284 -0.01568,-0.23586 -0.0222,-0.26323 -0.09516,-0.39891 -0.03913,-0.0728 -0.102768,-0.12828 -0.202923,-0.177 -0.169879,-0.0826 -0.351122,-0.11783 -0.378487,-0.0736 -0.01044,0.0168 -0.03969,0.0306 -0.0651,0.0306 -0.04686,0 -0.04666,-0.0323 0.0028,-0.42253 0.0328,-0.25838 -0.20089,-0.42441 -0.609794,-0.43325 -0.221647,-0.005 -0.233918,-10e-4 -0.242771,0.0606 -0.01193,0.0843 -0.121983,0.0922 -0.121983,0.008 0,-0.07 -0.05493,-0.20261 -0.112301,-0.2713 -0.0606,-0.0725 -0.142204,-0.0637 -0.335255,0.0365 -0.0928,0.0481 -0.174511,0.0876 -0.181573,0.0876 -0.04288,0 0.0015,-0.0959 0.08817,-0.19049 0.1834,-0.20022 0.169047,-0.46538 -0.03581,-0.66164 -0.153954,-0.14749 -0.270997,-0.19836 -0.456315,-0.19836 -0.229614,0 -0.41493,0.0766 -0.593731,0.24528 -0.103528,0.0976 -0.124016,0.13532 -0.124016,0.22768 0,0.10563 -0.03435,0.14393 -0.07295,0.0815 -0.0099,-0.016 -0.04023,-0.0297 -0.06738,-0.0304 -0.02713,-6.8e-4 -0.07561,-0.0424 -0.107705,-0.093 -0.113643,-0.17895 -0.341093,-0.17492 -0.468071,0.008 -0.104084,0.1502 -0.150979,0.14673 -0.174927,-0.0136 -0.01955,-0.13044 0.02342,-0.26802 0.07398,-0.23678 0.01443,0.01 0.03973,-0.009 0.05622,-0.0397 0.03874,-0.0724 -0.03356,-0.29366 -0.123352,-0.37759 -0.116071,-0.10848 -0.399691,-0.23921 -0.519014,-0.23921 -0.410585,0 -0.667667,0.24798 -0.669054,0.64536 -7.14e-4,0.20208 -0.02302,0.21061 -0.214419,0.0819 -0.143458,-0.0964 -0.194104,-0.11458 -0.320622,-0.11444 -0.175024,1.2e-4 -0.330521,0.08 -0.353335,0.18136 -0.0083,0.0366 -0.01866,0.1257 -0.02317,0.19787 -0.0077,0.12299 -0.0103,0.12665 -0.04057,0.0583 -0.01782,-0.0401 -0.04792,-0.13862 -0.06689,-0.21887 -0.0416,-0.17591 -0.137324,-0.2827 -0.344003,-0.38383 -0.126159,-0.0617 -0.184745,-0.0732 -0.321875,-0.0632 -0.277983,0.0203 -0.649121,0.24382 -0.649121,0.39094 0,0.0565 -8.6e-5,0.0568 -0.03132,0.16501 -0.03132,0.10834 0.01017,0.36682 0.07992,0.4975 l 0.04328,0.0811 -0.169961,-0.008 -0.169962,-0.008 -0.01458,0.12882 c -0.01261,0.11146 -0.01978,0.12257 -0.05288,0.0823 -0.02106,-0.0256 -0.106416,-0.0822 -0.189672,-0.12583 l -0.151369,-0.0793 -0.264011,0.0518 -0.264009,0.0518 -0.03509,0.11241 c -0.05451,0.17464 -0.04353,0.25694 0.04568,0.34238 0.151027,0.14466 0.190091,0.23246 0.170187,0.38249 -0.0099,0.0753 -0.01085,0.1442 -0.0018,0.15321 0.0091,0.01 0.06498,-0.007 0.124329,-0.0357 0.182939,-0.0881 0.349419,-0.11987 0.657793,-0.12515 0.409469,-0.007 0.447467,0.0122 0.617231,0.3152 0.0529,0.0944 0.05505,0.38717 0.0034,0.46595 -0.0536,0.0818 -0.309077,0.17422 -0.403952,0.14614 -0.03643,-0.0109 -0.171297,-0.12679 -0.299692,-0.25788 -0.272226,-0.2782 -0.303576,-0.29776 -0.491205,-0.30663 l -0.141088,-0.007 0.01951,0.18385 c 0.02639,0.24863 -0.03379,0.49435 -0.172104,0.70274 l -0.109495,0.16497 0.08652,0.16873 c 0.04758,0.0927 0.123772,0.26065 0.169304,0.373 0.04553,0.11241 0.133658,0.29482 0.195841,0.4055 0.207771,0.36984 0.428183,0.95999 0.428183,1.14643 0,0.005 0.04595,0.009 0.102131,0.009 0.126295,0 0.134445,0.0534 0.01193,0.0778 -0.08326,0.0167 -0.08878,0.0251 -0.07123,0.10875 0.01919,0.0915 0.02397,0.15915 0.01878,0.26572 -0.0015,0.0321 0.0026,0.0978 0.0092,0.14591 0.0066,0.0481 0.01315,0.13424 0.0144,0.19145 0.0023,0.0998 0.0083,0.10535 0.149044,0.1415 0.152576,0.0391 0.374458,0.1414 0.460212,0.21217 0.02732,0.0225 0.08491,0.0586 0.127949,0.0801 0.04305,0.0216 0.138553,0.10197 0.212225,0.17887 l 0.133956,0.13977 -0.04896,0.12624 c -0.06025,0.15532 -0.120654,0.22917 -0.171538,0.20966 -0.02122,-0.008 -0.07137,-0.063 -0.111406,-0.12204 -0.08781,-0.12936 -0.269309,-0.31789 -0.387403,-0.40249 -0.119596,-0.0857 -0.321433,-0.18623 -0.373755,-0.18623 -0.04193,0 -0.104152,0.16009 -0.104505,0.26884 -8.9e-5,0.0275 -0.02574,0.11485 -0.05696,0.1941 -0.0707,0.17937 -0.0429,0.30819 0.10083,0.46728 0.09641,0.10672 0.340798,0.25061 0.48276,0.28424 0.130363,0.0309 0.582073,0.0479 0.582073,0.0218 0,-0.0141 -0.0394,-0.0628 -0.08754,-0.10821 -0.04815,-0.0454 -0.08754,-0.10115 -0.08754,-0.12393 0,-0.0508 0.01389,-0.0519 0.06357,-0.004 0.182745,0.17374 0.218545,0.18961 0.372966,0.16518 0.08232,-0.0136 0.177147,-0.0324 0.210712,-0.043 0.05364,-0.0171 0.05878,-0.0109 0.04244,0.0546 -0.02095,0.0835 0.01112,0.12529 0.172723,0.22517 0.08644,0.0534 0.132898,0.0622 0.259829,0.0491 0.186516,-0.0192 0.259413,-0.061 0.327694,-0.18781 0.09903,-0.1839 0.215693,-0.1502 0.415256,0.12 0.127108,0.17207 0.239601,0.25086 0.440071,0.30827 0.07222,0.0206 0.164141,0.0481 0.204264,0.0609 0.122769,0.0393 0.332323,0.0304 0.483576,-0.0203 z M 4.4804086,283.52062 c 0.085087,-0.0705 0.1319219,-0.2264 0.1325999,-0.44117 3.404e-4,-0.11255 -0.00502,-0.21035 -0.011933,-0.21728 -0.00705,-0.007 -0.1156504,-0.0201 -0.2415925,-0.0292 l -0.2289753,-0.0165 -0.2273427,0.24182 c -0.185945,0.1978 -0.2273427,0.25884 -0.2273427,0.33523 0,0.10902 0.024543,0.12339 0.2918054,0.17026 0.215025,0.0377 0.4378361,0.019 0.512817,-0.0433 z m 0.7219816,-0.35205 c 0.170091,-0.0876 0.2825915,-0.26639 0.2825915,-0.44909 0,-0.11228 -0.02834,-0.1276 -0.2800572,-0.15104 -0.1182132,-0.0109 -0.1855478,-0.005 -0.1990505,0.0163 -0.011255,0.0182 -0.047744,0.0331 -0.081114,0.0331 -0.1991332,0 -0.1802269,0.36682 0.026862,0.52129 0.09226,0.0688 0.1591335,0.0768 0.2507684,0.0294 z m -1.3440489,-0.43833 0.1250337,-0.0335 -0.00203,-0.21912 c -0.00203,-0.21777 -0.00271,-0.21975 -0.1173183,-0.32028 -0.1389174,-0.1219 -0.2827515,-0.18773 -0.3544509,-0.16238 -0.1403466,0.0496 -0.2420428,0.2704 -0.2006098,0.43547 0.036326,0.1447 0.1173995,0.30231 0.1617057,0.31433 0.090429,0.0245 0.2660596,0.0179 0.3876152,-0.0147 z m 0.8095839,-0.0624 c 0.058768,-0.0477 0.070551,-0.13329 0.029018,-0.21092 -0.03097,-0.0579 -0.057805,-0.0639 -0.2926379,-0.0658 -0.1638671,-10e-4 -0.2687511,0.0108 -0.2864207,0.032 -0.05173,0.0632 -0.048503,0.15867 0.00746,0.22056 0.047418,0.0525 0.088138,0.0614 0.2772151,0.0606 0.1294406,-3.4e-4 0.2398325,-0.0157 0.2653979,-0.0365 z m 1.105819,-0.16211 c 0.049818,-0.0777 0.090579,-0.15643 0.090579,-0.17509 0,-0.0449 -0.2939369,-0.045 -0.3925645,-6e-5 -0.09188,0.0419 -0.093141,0.0629 -0.00664,0.1093 0.037262,0.0199 0.099487,0.0747 0.1382868,0.12163 0.038808,0.0469 0.072598,0.0854 0.075107,0.0854 0.00258,0 0.045343,-0.0636 0.095148,-0.14117 z m 6.8594348,0.0403 c 0.02777,-0.0335 0.02678,-0.0546 -0.0045,-0.0994 -0.06317,-0.0902 -0.306429,-0.28114 -0.440644,-0.34589 -0.06753,-0.0325 -0.167446,-0.0805 -0.222071,-0.10671 -0.05463,-0.026 -0.132641,-0.0475 -0.173365,-0.0475 -0.07138,0 -0.07199,10e-4 -0.0174,0.0429 0.03115,0.0236 0.07404,0.0433 0.09531,0.0438 0.07667,10e-4 0.431059,0.25768 0.559541,0.40395 0.07222,0.0822 0.139553,0.14991 0.149626,0.15044 0.01003,3.4e-4 0.03418,-0.0182 0.0536,-0.0415 z m -7.8289941,-0.36602 c 0.027513,-0.0401 0.059581,-0.0796 0.07127,-0.0879 0.011661,-0.008 0.025574,-0.0342 0.030875,-0.0576 0.00542,-0.0236 0.026048,-0.0605 0.046116,-0.082 0.040245,-0.0433 0.048381,-0.20462 0.013153,-0.2601 -0.045479,-0.0716 -0.238806,-0.12516 -0.45161,-0.12516 -0.2514627,0 -0.3059372,0.0302 -0.3427938,0.19046 -0.030347,0.13194 -0.021709,0.17987 0.065453,0.36397 l 0.062171,0.13126 h 0.2276871 c 0.2100731,0 0.2315597,-0.005 0.2777195,-0.0729 z m 4.2337678,-3.3667 c 0.1205183,-0.0624 0.2113206,-0.18359 0.2113206,-0.2822 0,-0.0446 -0.023851,-0.15769 -0.053005,-0.2514 -0.029167,-0.0937 -0.056476,-0.25567 -0.060707,-0.3599 -0.00434,-0.10428 -0.020502,-0.20494 -0.03615,-0.22379 -0.040204,-0.0484 -0.4148904,-0.10658 -0.5828228,-0.0904 -0.082009,0.008 -0.1833836,0.0426 -0.2424156,0.0831 -0.1104163,0.0757 -0.2212951,0.24735 -0.2212951,0.34269 0,0.0329 -0.014726,0.069 -0.032747,0.0801 -0.045737,0.0282 -0.00854,0.31712 0.053059,0.41098 0.079948,0.12204 0.2212056,0.25503 0.329847,0.31058 0.1251421,0.064 0.4951921,0.0525 0.6349163,-0.0198 z m -0.1568203,-0.58556 c -0.028746,-0.0748 0.00244,-0.14738 0.067378,-0.15667 0.082294,-0.0122 0.1466627,0.0945 0.094972,0.15683 -0.044896,0.0541 -0.1415453,0.054 -0.1623282,-1.6e-4 z m 1.3999036,0.58362 c 0.316991,-0.0606 0.470791,-0.1665 0.594164,-0.40892 0.06208,-0.12204 0.0713,-0.17211 0.05893,-0.32098 -0.01578,-0.18989 -0.124681,-0.46728 -0.21431,-0.54586 -0.0304,-0.0267 -0.133495,-0.0841 -0.229094,-0.1276 -0.159911,-0.0728 -0.1961,-0.0781 -0.452479,-0.0658 -0.2434334,0.0122 -0.3040474,0.026 -0.4793998,0.11309 -0.2617341,0.1299 -0.2928332,0.18026 -0.2940237,0.47622 -0.00203,0.52171 0.1837361,0.77741 0.6410221,0.88201 0.08025,0.0184 0.1480294,0.0349 0.1506294,0.0366 0.0026,0.001 0.103664,-0.0156 0.224571,-0.0388 z m -0.170405,-0.61814 c -0.05797,-0.058 -0.04757,-0.1543 0.02136,-0.1975 0.114321,-0.0717 0.230631,0.12678 0.12121,0.2068 -0.0673,0.0492 -0.08522,0.048 -0.142567,-0.009 z m 10.339637,0.55631 c 0.173695,-0.0587 0.282752,-0.1634 0.371367,-0.35657 0.16189,-0.35289 0.01704,-0.67801 -0.269985,-0.60596 -0.09325,0.0235 -0.176596,0.20843 -0.197982,0.43955 -0.01954,0.21107 -0.03799,0.27551 -0.09876,0.34461 -0.04705,0.0536 -0.266284,0.16554 -0.32395,0.16554 -0.01692,0 -0.03078,0.0122 -0.03078,0.0273 0,0.0696 0.327134,0.0609 0.550094,-0.0144 z m -8.304527,-0.58238 c 0.07779,-0.0721 0.09536,-0.14485 0.08082,-0.33439 -0.0064,-0.0838 -0.05924,-0.17436 -0.153874,-0.26406 -0.06246,-0.0593 -0.08379,-0.0614 -0.416007,-0.0422 -0.192592,0.0109 -0.394447,0.0386 -0.448566,0.0611 -0.05413,0.0225 -0.123068,0.041 -0.153199,0.041 -0.03013,0 -0.05479,0.0109 -0.05479,0.0241 0,0.0136 0.08856,0.0202 0.196816,0.0156 0.258668,-0.0109 0.342793,0.0405 0.671305,0.41291 0.05215,0.0591 0.09484,0.11932 0.09484,0.13383 0,0.0522 0.104328,0.0249 0.182674,-0.0477 z m -5.004803,-0.1666 c 0.266282,-0.27282 0.3385211,-0.33478 0.4553471,-0.39048 0.058523,-0.0279 0.1064163,-0.0603 0.1064163,-0.072 0,-0.032 -0.2209643,-0.0628 -0.3130561,-0.0437 -0.044476,0.01 -0.1531021,0.0235 -0.2413742,0.0315 -0.2579767,0.0235 -0.3167266,0.0438 -0.3789492,0.13113 -0.066781,0.0938 -0.07451,0.19428 -0.024001,0.31287 0.043242,0.10156 0.1394964,0.21293 0.1840602,0.21293 0.018455,0 0.1136571,-0.082 0.2115647,-0.18238 z m 1.0681653,-0.41444 c 0.042455,-0.0393 0.077209,-0.0658 0.077209,-0.0589 0,0.007 0.0531,-0.0149 0.1180233,-0.0488 0.099352,-0.0518 0.1466654,-0.0583 0.2991005,-0.0416 0.2073937,0.0228 0.3960032,0.0709 0.4552426,0.11634 0.030645,0.0235 0.048693,0.0176 0.072951,-0.0236 0.1326,-0.2253 0.2376521,-0.28416 0.6047579,-0.33878 0.4177014,-0.0621 0.7351394,-0.003 0.9217584,0.17288 0.115555,0.10862 0.126878,0.0671 0.035,-0.12827 -0.06202,-0.13194 -0.113955,-0.16519 -0.27048,-0.17306 -0.123298,-0.007 -0.123772,-0.0492 -0.002,-0.19479 0.09295,-0.11132 0.104288,-0.1414 0.09084,-0.2417 -0.01603,-0.11946 -0.07221,-0.18216 -0.12022,-0.1341 -0.03595,0.0359 -0.112627,0.0366 -0.0905,6.7e-4 0.0092,-0.0149 0.0027,-0.0359 -0.01463,-0.0466 -0.0547,-0.0338 -0.193544,0.045 -0.289307,0.16415 -0.1309857,0.16299 -0.2037154,0.0918 -0.1031617,-0.10102 0.05916,-0.11349 0.0555,-0.29057 -0.0075,-0.36102 -0.0457,-0.0511 -0.1962047,-0.11011 -0.3349907,-0.13126 -0.091188,-0.014 -0.2215262,0.10115 -0.2713092,0.23958 -0.1043145,0.29005 -0.1416252,0.31815 -0.2526884,0.19042 -0.086389,-0.0994 -0.1737793,-0.0917 -0.3321033,0.0292 -0.1430476,0.10915 -0.2168719,0.12908 -0.2168719,0.0584 0,-0.0241 -0.05253,-0.0979 -0.1167216,-0.16401 -0.084572,-0.0872 -0.1167215,-0.1063 -0.1167215,-0.0693 0,0.0407 -0.017099,0.0475 -0.085114,0.0339 -0.075405,-0.0152 -0.089141,-0.007 -0.1204098,0.0766 -0.062632,0.16607 -0.053737,0.26696 0.035011,0.39712 0.045642,0.067 0.082972,0.12719 0.082972,0.13383 0,0.007 -0.074619,0.016 -0.1658103,0.0209 -0.1513313,0.008 -0.1675975,0.0155 -0.1862623,0.0857 -0.011255,0.0423 -0.013709,0.11227 -0.00542,0.15539 0.015255,0.0799 0.04613,0.0842 0.1943195,0.0273 0.036503,-0.014 0.046496,10e-4 0.046496,0.0747 0,0.051 -0.011255,0.11472 -0.025126,0.14173 -0.013831,0.027 -0.033777,0.0853 -0.044327,0.12936 -0.024665,0.10319 0.032299,0.10685 0.1381621,0.008 z m 0.1218742,-0.31507 c 0.02918,-0.0987 0.1556636,-0.20587 0.3313901,-0.28086 0.1271761,-0.0542 0.1619282,-0.0597 0.1819327,-0.0281 0.056313,0.0888 0.023038,0.13329 -0.1494614,0.19999 -0.056178,0.0217 -0.1478586,0.0698 -0.2037434,0.10698 -0.1317728,0.0876 -0.185663,0.0883 -0.160118,10e-4 z m 1.4727201,-0.20145 c -0.04012,-0.0164 -0.1630396,-0.0346 -0.2731495,-0.0403 -0.1101044,-0.005 -0.2078113,-0.0179 -0.2171159,-0.0272 -0.00922,-0.009 0.00583,-0.0396 0.033465,-0.0673 0.038631,-0.0386 0.097358,-0.0498 0.2517297,-0.0476 0.2182317,0.003 0.3318414,0.0523 0.3589374,0.15589 0.01778,0.0681 -0.032,0.0766 -0.1538677,0.0266 z m -1.8821446,0.47137 c -0.079704,-0.0343 -0.1021314,-0.0343 -0.1021314,0 0,0.016 0.036109,0.0282 0.080246,0.0271 0.07112,-10e-4 0.073602,-0.005 0.021885,-0.0271 z"
       id="path23"
       inkscape:connector-curvature="0" />
  </g>
</svg>
